<svg width="59.99999999999999" height="59.99999999999999" xmlns="http://www.w3.org/2000/svg">
 <!-- Created with Method Draw - http://github.com/duopixel/Method-Draw/ -->
 <g>
  <title>background</title>
  <rect fill="none" id="canvas_background" height="62" width="62" y="-1" x="-1"/>
  <g display="none" overflow="visible" y="0" x="0" height="100%" width="100%" id="canvasGrid">
   <rect fill="url(#gridpattern)" stroke-width="0" y="0" x="0" height="100%" width="100%"/>
  </g>
 </g>
 <g>
  <title>Layer 1</title>
  <path stroke="#000" id="svg_1" d="m41.029332,28.510566c-1.292938,-2.335609 -2.874756,-4.226528 -4.461432,-5.5493c-1.851401,1.355848 -4.106308,2.181459 -6.564595,2.181459c-2.463113,0 -4.721264,-0.82722 -6.569401,-2.181459c-1.586672,1.322771 -3.170106,3.213691 -4.466218,5.5493c-3.008728,5.422614 -3.339614,10.984833 -0.740917,12.427042c1.163806,0.649669 2.384041,0.165443 3.644681,-1.04919c-0.221134,1.231561 -0.350271,2.566414 -0.350271,3.962633c0,6.203043 2.409887,11.227766 5.37981,11.227766c1.790073,0 2.676212,-1.829615 3.102316,-4.630894c0.424532,2.801279 1.310664,4.630894 3.094249,4.630894c2.974804,0 5.384713,-5.024723 5.384713,-11.227766c0,-1.396221 -0.12918,-2.731072 -0.35512,-3.962633c1.263839,1.214633 2.482468,1.698859 3.649505,1.04919c2.597098,-1.442209 2.261325,-7.00443 -0.747319,-12.427042l-0.000002,0zm-11.029204,-5.483934c4.997246,0 9.050273,-4.053018 9.050273,-9.05272s-4.053027,-9.052731 -9.050273,-9.052731c-4.998946,0 -9.055174,4.053824 -9.055174,9.052731s4.056228,9.05272 9.055174,9.05272z" stroke-width="1.5" fill="#fff"/>
 </g>
</svg>