<svg width="60" height="60" xmlns="http://www.w3.org/2000/svg">
 <!-- Created with Method Draw - http://github.com/duopixel/Method-Draw/ -->
 <g>
  <title>background</title>
  <rect fill="none" id="canvas_background" height="62" width="62" y="-1" x="-1"/>
  <g display="none" overflow="visible" y="0" x="0" height="100%" width="100%" id="canvasGrid">
   <rect fill="url(#gridpattern)" stroke-width="0" y="0" x="0" height="100%" width="100%"/>
  </g>
 </g>
 <g>
  <title>Layer 1</title>
  <path stroke="#000" id="svg_1" d="m26.735196,25.298478c-0.082657,-0.090855 -0.185208,-0.179904 -0.315962,-0.24822c-0.559469,-0.29789 -1.348983,-0.207029 -1.759149,0.204112c-0.409468,0.412119 -0.280042,0.988141 0.280714,1.286868c0.509511,0.269778 1.18943,0.205094 1.623276,-0.112289l-11.904476,11.991677l-3.700932,9.816143l11.619962,-5.618435l26.462706,-26.65655l-7.922224,-4.198552l-2.553781,2.572755c-0.146094,-0.427981 -0.472304,-0.829804 -1.000995,-1.112667c-1.226632,-0.649902 -2.941516,-0.453303 -3.830375,0.444816c-5.093503,5.134377 -2.269885,6.501664 -6.998765,11.630341l0.000002,0zm-5.827926,16.049841l-5.977226,2.890258l1.903336,-5.053674l4.073891,2.163416l-0.000002,0zm7.041078,-16.311131c3.666935,-3.958831 3.317655,-5.032263 6.455916,-8.546131c0.51913,0.260323 1.115109,0.352153 1.700185,0.329613l-8.156101,8.216518l0,-0.000001z" stroke-width="1.5" fill="#fff"/>
 </g>
</svg>