<svg width="59.99999999999999" height="59.99999999999999" xmlns="http://www.w3.org/2000/svg">
 <!-- Created with Method Draw - http://github.com/duopixel/Method-Draw/ -->
 <defs>
  <linearGradient y2="0" x2="1" y1="0" x1="0" id="svg_1">
   <stop offset="1" stop-opacity="0" stop-color="0"/>
   <stop offset="1" stop-color="#9baaaa"/>
   <stop offset="1" stop-color="#9baaaa"/>
   <stop offset="1" stop-color="#9baaaa"/>
   <stop offset="1" stop-color="#645555"/>
  </linearGradient>
 </defs>
 <g>
  <title>background</title>
  <rect fill="url(#svg_1)" id="canvas_background" height="62" width="62" y="-1" x="-1"/>
  <g display="none" overflow="visible" y="0" x="0" height="100%" width="100%" id="canvasGrid">
   <rect fill="url(#gridpattern)" stroke-width="0" y="0" x="0" height="100%" width="100%"/>
  </g>
 </g>
 <g>
  <title>Layer 1</title>
  <path id="svg_2" d="m38.813928,23.563522c0,0 1.555252,-6.429839 0,-8.607925c-1.557084,-2.178085 -2.178085,-3.628921 -5.601837,-4.667587s-2.176253,-0.831666 -4.665755,-0.725418c-2.489502,0.104416 -4.565003,1.450836 -4.565003,2.176253c0,0 -1.555252,0.104416 -2.176253,0.72725c-0.622833,0.622833 -1.659668,3.524505 -1.659668,4.251754s0.518417,5.601837 1.036835,6.638672l-0.617338,0.207001c-0.518417,6.014006 2.073669,6.741256 2.073669,6.741256c0.932418,5.601837 1.866668,3.216752 1.866668,4.667587s-0.93425,0.93425 -0.93425,0.93425s-0.828002,2.28067 -2.901671,3.110504c-2.073669,0.828002 -13.585097,5.286757 -14.521179,6.221007c-0.936082,0.936082 -0.829834,5.290421 -0.829834,5.290421l49.363214,0c0,0 0.10808,-4.354339 -0.828002,-5.290421c-0.937914,-0.936082 -12.449341,-5.393005 -14.523011,-6.221007c-2.073669,-0.829834 -2.901671,-3.110504 -2.901671,-3.110504s-0.93425,0.516585 -0.93425,-0.93425s0.93425,0.93425 1.8685,-4.667587c0,0 2.590254,-0.72725 2.073669,-6.741256l-0.622833,0z" stroke-width="1.5" stroke="#000" fill="#fff"/>
 </g>
</svg>